<svg width="11" height="12" viewBox="0 0 11 12" fill="none" xmlns="http://www.w3.org/2000/svg">
<mask id="path-1-inside-1_616_75754" fill="white">
<path d="M4.77539 0.153927C5.13093 -0.0513446 5.56924 -0.0512734 5.9248 0.153927L10.126 2.57873C10.4816 2.78404 10.7002 3.16422 10.7002 3.57483V8.42541C10.7 8.83582 10.4814 9.21528 10.126 9.42053L5.9248 11.8453C5.56922 12.0506 5.13096 12.0506 4.77539 11.8453L0.575195 9.42053C0.219718 9.21529 0.000154785 8.83586 0 8.42541V3.57483C0 3.16421 0.219593 2.78404 0.575195 2.57873L4.77539 0.153927ZM5.41699 2.69592C5.17994 2.69592 4.99512 2.89392 4.99512 3.11779V5.85705C4.9949 5.9754 4.88943 6.06701 4.78418 6.06701C4.66593 6.06685 4.57441 5.9753 4.57422 5.85705V3.53869C4.57411 3.31489 4.37616 3.11779 4.15234 3.11779C3.91537 3.1178 3.73057 3.3149 3.73047 3.53869V7.22619L2.94043 6.43615C2.83516 6.33097 2.70381 6.27801 2.57227 6.27795C2.26937 6.27795 2.04492 6.52874 2.04492 6.80529C2.045 6.94999 2.08518 7.08188 2.19043 7.18713L3.67871 8.67541C4.17898 9.17544 4.8371 9.43897 5.54785 9.43908H6.04883C7.32622 9.43904 8.36621 8.41129 8.36621 7.12072V4.38147C8.36606 4.15775 8.16903 3.96067 7.94531 3.96057C7.70835 3.96057 7.52358 4.15769 7.52344 4.38147V5.85705C7.52322 5.97522 7.41857 6.06674 7.31348 6.06701C7.19507 6.06701 7.10273 5.9754 7.10254 5.85705V3.53869C7.10243 3.31489 6.90448 3.11779 6.68066 3.11779C6.44378 3.11791 6.25987 3.31496 6.25977 3.53869V5.85705C6.25955 5.9754 6.15356 6.06701 6.03516 6.06701C5.93009 6.06677 5.83808 5.97524 5.83789 5.85705V3.11779C5.83789 2.89404 5.64072 2.69614 5.41699 2.69592Z"/>
</mask>
<path d="M4.77539 0.153927C5.13093 -0.0513446 5.56924 -0.0512734 5.9248 0.153927L10.126 2.57873C10.4816 2.78404 10.7002 3.16422 10.7002 3.57483V8.42541C10.7 8.83582 10.4814 9.21528 10.126 9.42053L5.9248 11.8453C5.56922 12.0506 5.13096 12.0506 4.77539 11.8453L0.575195 9.42053C0.219718 9.21529 0.000154785 8.83586 0 8.42541V3.57483C0 3.16421 0.219593 2.78404 0.575195 2.57873L4.77539 0.153927ZM5.41699 2.69592C5.17994 2.69592 4.99512 2.89392 4.99512 3.11779V5.85705C4.9949 5.9754 4.88943 6.06701 4.78418 6.06701C4.66593 6.06685 4.57441 5.9753 4.57422 5.85705V3.53869C4.57411 3.31489 4.37616 3.11779 4.15234 3.11779C3.91537 3.1178 3.73057 3.3149 3.73047 3.53869V7.22619L2.94043 6.43615C2.83516 6.33097 2.70381 6.27801 2.57227 6.27795C2.26937 6.27795 2.04492 6.52874 2.04492 6.80529C2.045 6.94999 2.08518 7.08188 2.19043 7.18713L3.67871 8.67541C4.17898 9.17544 4.8371 9.43897 5.54785 9.43908H6.04883C7.32622 9.43904 8.36621 8.41129 8.36621 7.12072V4.38147C8.36606 4.15775 8.16903 3.96067 7.94531 3.96057C7.70835 3.96057 7.52358 4.15769 7.52344 4.38147V5.85705C7.52322 5.97522 7.41857 6.06674 7.31348 6.06701C7.19507 6.06701 7.10273 5.9754 7.10254 5.85705V3.53869C7.10243 3.31489 6.90448 3.11779 6.68066 3.11779C6.44378 3.11791 6.25987 3.31496 6.25977 3.53869V5.85705C6.25955 5.9754 6.15356 6.06701 6.03516 6.06701C5.93009 6.06677 5.83808 5.97524 5.83789 5.85705V3.11779C5.83789 2.89404 5.64072 2.69614 5.41699 2.69592Z" fill="#8D9AAE"/>
<path d="M4.77539 0.153927C5.13093 -0.0513446 5.56924 -0.0512734 5.9248 0.153927L10.126 2.57873C10.4816 2.78404 10.7002 3.16422 10.7002 3.57483V8.42541C10.7 8.83582 10.4814 9.21528 10.126 9.42053L5.9248 11.8453C5.56922 12.0506 5.13096 12.0506 4.77539 11.8453L0.575195 9.42053C0.219718 9.21529 0.000154785 8.83586 0 8.42541V3.57483C0 3.16421 0.219593 2.78404 0.575195 2.57873L4.77539 0.153927ZM5.41699 2.69592C5.17994 2.69592 4.99512 2.89392 4.99512 3.11779V5.85705C4.9949 5.9754 4.88943 6.06701 4.78418 6.06701C4.66593 6.06685 4.57441 5.9753 4.57422 5.85705V3.53869C4.57411 3.31489 4.37616 3.11779 4.15234 3.11779C3.91537 3.1178 3.73057 3.3149 3.73047 3.53869V7.22619L2.94043 6.43615C2.83516 6.33097 2.70381 6.27801 2.57227 6.27795C2.26937 6.27795 2.04492 6.52874 2.04492 6.80529C2.045 6.94999 2.08518 7.08188 2.19043 7.18713L3.67871 8.67541C4.17898 9.17544 4.8371 9.43897 5.54785 9.43908H6.04883C7.32622 9.43904 8.36621 8.41129 8.36621 7.12072V4.38147C8.36606 4.15775 8.16903 3.96067 7.94531 3.96057C7.70835 3.96057 7.52358 4.15769 7.52344 4.38147V5.85705C7.52322 5.97522 7.41857 6.06674 7.31348 6.06701C7.19507 6.06701 7.10273 5.9754 7.10254 5.85705V3.53869C7.10243 3.31489 6.90448 3.11779 6.68066 3.11779C6.44378 3.11791 6.25987 3.31496 6.25977 3.53869V5.85705C6.25955 5.9754 6.15356 6.06701 6.03516 6.06701C5.93009 6.06677 5.83808 5.97524 5.83789 5.85705V3.11779C5.83789 2.89404 5.64072 2.69614 5.41699 2.69592Z" fill="black" fill-opacity="0.2"/>
<path d="M4.77539 0.153927C5.13093 -0.0513446 5.56924 -0.0512734 5.9248 0.153927L10.126 2.57873C10.4816 2.78404 10.7002 3.16422 10.7002 3.57483V8.42541C10.7 8.83582 10.4814 9.21528 10.126 9.42053L5.9248 11.8453C5.56922 12.0506 5.13096 12.0506 4.77539 11.8453L0.575195 9.42053C0.219718 9.21529 0.000154785 8.83586 0 8.42541V3.57483C0 3.16421 0.219593 2.78404 0.575195 2.57873L4.77539 0.153927ZM5.41699 2.69592C5.17994 2.69592 4.99512 2.89392 4.99512 3.11779V5.85705C4.9949 5.9754 4.88943 6.06701 4.78418 6.06701C4.66593 6.06685 4.57441 5.9753 4.57422 5.85705V3.53869C4.57411 3.31489 4.37616 3.11779 4.15234 3.11779C3.91537 3.1178 3.73057 3.3149 3.73047 3.53869V7.22619L2.94043 6.43615C2.83516 6.33097 2.70381 6.27801 2.57227 6.27795C2.26937 6.27795 2.04492 6.52874 2.04492 6.80529C2.045 6.94999 2.08518 7.08188 2.19043 7.18713L3.67871 8.67541C4.17898 9.17544 4.8371 9.43897 5.54785 9.43908H6.04883C7.32622 9.43904 8.36621 8.41129 8.36621 7.12072V4.38147C8.36606 4.15775 8.16903 3.96067 7.94531 3.96057C7.70835 3.96057 7.52358 4.15769 7.52344 4.38147V5.85705C7.52322 5.97522 7.41857 6.06674 7.31348 6.06701C7.19507 6.06701 7.10273 5.9754 7.10254 5.85705V3.53869C7.10243 3.31489 6.90448 3.11779 6.68066 3.11779C6.44378 3.11791 6.25987 3.31496 6.25977 3.53869V5.85705C6.25955 5.9754 6.15356 6.06701 6.03516 6.06701C5.93009 6.06677 5.83808 5.97524 5.83789 5.85705V3.11779C5.83789 2.89404 5.64072 2.69614 5.41699 2.69592Z" fill="black" fill-opacity="0.2"/>
<path fill-rule="evenodd" clip-rule="evenodd" d="M4.77539 0.153927L5.01013 0.560539L5.01014 0.560531L4.77539 0.153927ZM5.9248 0.153927L6.1595 -0.252708L6.15948 -0.252721L5.9248 0.153927ZM10.126 2.57873L10.3607 2.17213L10.3607 2.1721L10.126 2.57873ZM10.7002 8.42541L11.1697 8.42559V8.42541H10.7002ZM10.126 9.42053L10.3607 9.82716L10.3608 9.82711L10.126 9.42053ZM5.9248 11.8453L5.69011 11.4387L5.69009 11.4387L5.9248 11.8453ZM4.77539 11.8453L5.01014 11.4387L5.01013 11.4387L4.77539 11.8453ZM0.575195 9.42053L0.340442 9.82713L0.340455 9.82714L0.575195 9.42053ZM0 8.42541H-0.469506L-0.469506 8.42559L0 8.42541ZM0.575195 2.57873L0.340455 2.17212L0.340442 2.17213L0.575195 2.57873ZM5.41699 2.69592L5.41745 2.22641H5.41699V2.69592ZM4.99512 5.85705L5.46462 5.85791V5.85705H4.99512ZM4.78418 6.06701L4.78354 6.53652H4.78418V6.06701ZM4.57422 5.85705H4.10471L4.10471 5.8578L4.57422 5.85705ZM4.57422 3.53869H5.04372V3.53846L4.57422 3.53869ZM4.15234 3.11779V2.64829H4.15233L4.15234 3.11779ZM3.73047 3.53869L3.26096 3.53848V3.53869H3.73047ZM3.73047 7.22619L3.39848 7.55818L4.19997 8.35968V7.22619H3.73047ZM2.94043 6.43615L3.27242 6.10416L3.27229 6.10403L2.94043 6.43615ZM2.57227 6.27795L2.57248 5.80844H2.57227V6.27795ZM2.04492 6.80529H1.57542L1.57542 6.80554L2.04492 6.80529ZM2.19043 7.18713L1.85844 7.51912V7.51912L2.19043 7.18713ZM3.67871 8.67541L3.34672 9.0074L3.3468 9.00748L3.67871 8.67541ZM5.54785 9.43908L5.54778 9.90859H5.54785V9.43908ZM6.04883 9.43908V9.90859H6.04884L6.04883 9.43908ZM8.36621 4.38147H8.83572V4.38115L8.36621 4.38147ZM7.94531 3.96057L7.94553 3.49106H7.94531V3.96057ZM7.52344 4.38147L7.05393 4.38118V4.38147H7.52344ZM7.52344 5.85705L7.99294 5.85791V5.85705H7.52344ZM7.31348 6.06701V6.53652L7.3147 6.53652L7.31348 6.06701ZM7.10254 5.85705H6.63303L6.63303 5.8578L7.10254 5.85705ZM7.10254 3.53869H7.57204V3.53846L7.10254 3.53869ZM6.68066 3.11779V2.64829L6.68043 2.64829L6.68066 3.11779ZM6.25977 3.53869L5.79026 3.53848V3.53869H6.25977ZM6.25977 5.85705L6.72927 5.85791V5.85705H6.25977ZM6.03516 6.06701L6.03406 6.53652H6.03516V6.06701ZM5.83789 5.85705H5.36838L5.36839 5.8578L5.83789 5.85705ZM4.77539 0.153927L5.01014 0.560531C5.22036 0.439163 5.47973 0.439151 5.69013 0.560575L5.9248 0.153927L6.15948 -0.252721C5.65874 -0.541698 5.0415 -0.541852 4.54064 -0.252677L4.77539 0.153927ZM5.9248 0.153927L5.69011 0.560562L9.89128 2.98537L10.126 2.57873L10.3607 2.1721L6.1595 -0.252708L5.9248 0.153927ZM10.126 2.57873L9.89122 2.98533C10.101 3.10643 10.2307 3.33127 10.2307 3.57483H10.7002H11.1697C11.1697 2.99716 10.8622 2.46165 10.3607 2.17213L10.126 2.57873ZM10.7002 3.57483H10.2307V8.42541H10.7002H11.1697V3.57483H10.7002ZM10.7002 8.42541L10.2307 8.42523C10.2306 8.66838 10.1011 8.89274 9.89118 9.01395L10.126 9.42053L10.3608 9.82711C10.8617 9.53782 11.1695 9.00326 11.1697 8.42559L10.7002 8.42541ZM10.126 9.42053L9.89128 9.01389L5.69011 11.4387L5.9248 11.8453L6.1595 12.252L10.3607 9.82716L10.126 9.42053ZM5.9248 11.8453L5.69009 11.4387C5.47972 11.5601 5.22041 11.5601 5.01014 11.4387L4.77539 11.8453L4.54064 12.2519C5.0415 12.5411 5.65872 12.541 6.15952 12.252L5.9248 11.8453ZM4.77539 11.8453L5.01013 11.4387L0.809935 9.01392L0.575195 9.42053L0.340455 9.82714L4.54065 12.2519L4.77539 11.8453ZM0.575195 9.42053L0.809948 9.01392C0.599404 8.89237 0.469597 8.66769 0.469506 8.42523L0 8.42541L-0.469506 8.42559C-0.469288 9.00403 -0.159967 9.53822 0.340442 9.82713L0.575195 9.42053ZM0 8.42541H0.469506V3.57483H0H-0.469506V8.42541H0ZM0 3.57483H0.469506C0.469506 3.33203 0.599543 3.10681 0.809948 2.98534L0.575195 2.57873L0.340442 2.17213C-0.160357 2.46126 -0.469506 2.99639 -0.469506 3.57483H0ZM0.575195 2.57873L0.809935 2.98534L5.01013 0.560539L4.77539 0.153927L4.54065 -0.252685L0.340455 2.17212L0.575195 2.57873ZM5.41699 2.69592V2.22641C4.91119 2.22641 4.52561 2.64417 4.52561 3.11779H4.99512H5.46462C5.46462 3.13564 5.4577 3.14619 5.4527 3.15131C5.44629 3.15785 5.43317 3.16543 5.41699 3.16543V2.69592ZM4.99512 3.11779H4.52561V5.85705H4.99512H5.46462V3.11779H4.99512ZM4.99512 5.85705L4.52561 5.85619C4.52577 5.77129 4.56412 5.70561 4.60511 5.66655C4.64325 5.63019 4.70352 5.59751 4.78418 5.59751V6.06701V6.53652C5.12773 6.53652 5.4639 6.25541 5.46462 5.85791L4.99512 5.85705ZM4.78418 6.06701L4.78482 5.59751C4.92549 5.5977 5.0435 5.71595 5.04372 5.8563L4.57422 5.85705L4.10471 5.8578C4.10532 6.23464 4.40637 6.53601 4.78354 6.53652L4.78418 6.06701ZM4.57422 5.85705H5.04372V3.53869H4.57422H4.10471V5.85705H4.57422ZM4.57422 3.53869L5.04372 3.53846C5.04349 3.05436 4.63428 2.64829 4.15234 2.64829V3.11779V3.5873C4.13896 3.5873 4.12924 3.58432 4.12387 3.58196C4.11886 3.57976 4.1166 3.57772 4.11567 3.5768C4.11474 3.57587 4.1126 3.57352 4.11028 3.56826C4.10779 3.56264 4.10472 3.55261 4.10471 3.53892L4.57422 3.53869ZM4.15234 3.11779L4.15233 2.64829C3.64782 2.64831 3.26118 3.06388 3.26096 3.53848L3.73047 3.53869L4.19997 3.53891C4.19997 3.55689 4.19293 3.56783 4.18762 3.57323C4.18097 3.58001 4.16793 3.5873 4.15236 3.5873L4.15234 3.11779ZM3.73047 3.53869H3.26096V7.22619H3.73047H4.19997V3.53869H3.73047ZM3.73047 7.22619L4.06246 6.8942L3.27242 6.10416L2.94043 6.43615L2.60844 6.76814L3.39848 7.55818L3.73047 7.22619ZM2.94043 6.43615L3.27229 6.10403C3.08253 5.91442 2.83326 5.80857 2.57248 5.80844L2.57227 6.27795L2.57205 6.74746C2.57452 6.74746 2.5782 6.74789 2.58339 6.75008C2.58851 6.75225 2.59742 6.75713 2.60857 6.76828L2.94043 6.43615ZM2.57227 6.27795V5.80844C1.99496 5.80844 1.57542 6.28481 1.57542 6.80529H2.04492H2.51443C2.51443 6.79383 2.51966 6.7776 2.53266 6.76414C2.54343 6.753 2.55552 6.74746 2.57227 6.74746V6.27795ZM2.04492 6.80529L1.57542 6.80554C1.57554 7.0417 1.64434 7.30502 1.85844 7.51912L2.19043 7.18713L2.52242 6.85514C2.52045 6.85317 2.5201 6.85244 2.52036 6.85285C2.52059 6.85322 2.52036 6.853 2.51978 6.8514C2.51857 6.84804 2.51444 6.83451 2.51443 6.80505L2.04492 6.80529ZM2.19043 7.18713L1.85844 7.51912L3.34672 9.0074L3.67871 8.67541L4.0107 8.34342L2.52242 6.85514L2.19043 7.18713ZM3.67871 8.67541L3.3468 9.00748C3.93824 9.59863 4.71708 9.90846 5.54778 9.90859L5.54785 9.43908L5.54793 8.96958C4.95712 8.96948 4.41973 8.75225 4.01062 8.34334L3.67871 8.67541ZM5.54785 9.43908V9.90859H6.04883V9.43908V8.96958H5.54785V9.43908ZM6.04883 9.43908L6.04884 9.90859C7.58402 9.90854 8.83572 8.67209 8.83572 7.12072H8.36621H7.89671C7.89671 8.1505 7.06841 8.96954 6.04881 8.96958L6.04883 9.43908ZM8.36621 7.12072H8.83572V4.38147H8.36621H7.89671V7.12072H8.36621ZM8.36621 4.38147L8.83572 4.38115C8.8354 3.89847 8.42847 3.49129 7.94553 3.49106L7.94531 3.96057L7.94509 4.43007C7.91812 4.43006 7.90763 4.41917 7.9076 4.41914C7.90757 4.41911 7.89672 4.40868 7.89671 4.38178L8.36621 4.38147ZM7.94531 3.96057V3.49106C7.44072 3.49106 7.05422 3.90674 7.05393 4.38118L7.52344 4.38147L7.99294 4.38176C7.99293 4.39972 7.98591 4.41061 7.98063 4.416C7.97399 4.42276 7.96093 4.43007 7.94531 4.43007V3.96057ZM7.52344 4.38147H7.05393V5.85705H7.52344H7.99294V4.38147H7.52344ZM7.52344 5.85705L7.05393 5.85619C7.05409 5.77217 7.09183 5.70665 7.13295 5.66725C7.17127 5.63053 7.23168 5.59772 7.31225 5.59751L7.31348 6.06701L7.3147 6.53652C7.65889 6.53562 7.99222 6.25354 7.99294 5.85791L7.52344 5.85705ZM7.31348 6.06701V5.59751C7.45229 5.59751 7.57182 5.71385 7.57204 5.8563L7.10254 5.85705L6.63303 5.8578C6.63364 6.23695 6.93786 6.53652 7.31348 6.53652V6.06701ZM7.10254 5.85705H7.57204V3.53869H7.10254H6.63303V5.85705H7.10254ZM7.10254 3.53869L7.57204 3.53846C7.57181 3.05436 7.1626 2.64829 6.68066 2.64829V3.11779V3.5873C6.66728 3.5873 6.65756 3.58432 6.65219 3.58196C6.64718 3.57976 6.64492 3.57772 6.64399 3.5768C6.64306 3.57587 6.64092 3.57352 6.6386 3.56826C6.63611 3.56264 6.63304 3.55261 6.63303 3.53892L7.10254 3.53869ZM6.68066 3.11779L6.68043 2.64829C6.17499 2.64854 5.79048 3.06515 5.79026 3.53848L6.25977 3.53869L6.72927 3.53891C6.72926 3.55628 6.7225 3.56714 6.71696 3.57279C6.71003 3.57988 6.69661 3.58729 6.6809 3.5873L6.68066 3.11779ZM6.25977 3.53869H5.79026V5.85705H6.25977H6.72927V3.53869H6.25977ZM6.25977 5.85705L5.79026 5.85619C5.79042 5.76935 5.83049 5.70048 5.87537 5.65954C5.91839 5.6203 5.97441 5.59751 6.03516 5.59751V6.06701V6.53652C6.37187 6.53652 6.72851 6.27409 6.72927 5.85791L6.25977 5.85705ZM6.03516 6.06701L6.03625 5.59751C6.20752 5.59791 6.3072 5.73403 6.3074 5.8563L5.83789 5.85705L5.36839 5.8578C5.36896 6.21645 5.65265 6.53563 6.03406 6.53652L6.03516 6.06701ZM5.83789 5.85705H6.3074V3.11779H5.83789H5.36838V5.85705H5.83789ZM5.83789 3.11779H6.3074C6.3074 2.6357 5.90108 2.22689 5.41745 2.22641L5.41699 2.69592L5.41653 3.16543C5.40285 3.16541 5.39287 3.16234 5.38731 3.15988C5.38211 3.15758 5.37979 3.15547 5.37889 3.15456C5.37799 3.15366 5.37596 3.15142 5.37375 3.14639C5.37138 3.14101 5.36838 3.13125 5.36838 3.11779H5.83789Z" fill="#8D9AAE" mask="url(#path-1-inside-1_616_75754)"/>
<path fill-rule="evenodd" clip-rule="evenodd" d="M4.77539 0.153927L5.01013 0.560539L5.01014 0.560531L4.77539 0.153927ZM5.9248 0.153927L6.1595 -0.252708L6.15948 -0.252721L5.9248 0.153927ZM10.126 2.57873L10.3607 2.17213L10.3607 2.1721L10.126 2.57873ZM10.7002 8.42541L11.1697 8.42559V8.42541H10.7002ZM10.126 9.42053L10.3607 9.82716L10.3608 9.82711L10.126 9.42053ZM5.9248 11.8453L5.69011 11.4387L5.69009 11.4387L5.9248 11.8453ZM4.77539 11.8453L5.01014 11.4387L5.01013 11.4387L4.77539 11.8453ZM0.575195 9.42053L0.340442 9.82713L0.340455 9.82714L0.575195 9.42053ZM0 8.42541H-0.469506L-0.469506 8.42559L0 8.42541ZM0.575195 2.57873L0.340455 2.17212L0.340442 2.17213L0.575195 2.57873ZM5.41699 2.69592L5.41745 2.22641H5.41699V2.69592ZM4.99512 5.85705L5.46462 5.85791V5.85705H4.99512ZM4.78418 6.06701L4.78354 6.53652H4.78418V6.06701ZM4.57422 5.85705H4.10471L4.10471 5.8578L4.57422 5.85705ZM4.57422 3.53869H5.04372V3.53846L4.57422 3.53869ZM4.15234 3.11779V2.64829H4.15233L4.15234 3.11779ZM3.73047 3.53869L3.26096 3.53848V3.53869H3.73047ZM3.73047 7.22619L3.39848 7.55818L4.19997 8.35968V7.22619H3.73047ZM2.94043 6.43615L3.27242 6.10416L3.27229 6.10403L2.94043 6.43615ZM2.57227 6.27795L2.57248 5.80844H2.57227V6.27795ZM2.04492 6.80529H1.57542L1.57542 6.80554L2.04492 6.80529ZM2.19043 7.18713L1.85844 7.51912V7.51912L2.19043 7.18713ZM3.67871 8.67541L3.34672 9.0074L3.3468 9.00748L3.67871 8.67541ZM5.54785 9.43908L5.54778 9.90859H5.54785V9.43908ZM6.04883 9.43908V9.90859H6.04884L6.04883 9.43908ZM8.36621 4.38147H8.83572V4.38115L8.36621 4.38147ZM7.94531 3.96057L7.94553 3.49106H7.94531V3.96057ZM7.52344 4.38147L7.05393 4.38118V4.38147H7.52344ZM7.52344 5.85705L7.99294 5.85791V5.85705H7.52344ZM7.31348 6.06701V6.53652L7.3147 6.53652L7.31348 6.06701ZM7.10254 5.85705H6.63303L6.63303 5.8578L7.10254 5.85705ZM7.10254 3.53869H7.57204V3.53846L7.10254 3.53869ZM6.68066 3.11779V2.64829L6.68043 2.64829L6.68066 3.11779ZM6.25977 3.53869L5.79026 3.53848V3.53869H6.25977ZM6.25977 5.85705L6.72927 5.85791V5.85705H6.25977ZM6.03516 6.06701L6.03406 6.53652H6.03516V6.06701ZM5.83789 5.85705H5.36838L5.36839 5.8578L5.83789 5.85705ZM4.77539 0.153927L5.01014 0.560531C5.22036 0.439163 5.47973 0.439151 5.69013 0.560575L5.9248 0.153927L6.15948 -0.252721C5.65874 -0.541698 5.0415 -0.541852 4.54064 -0.252677L4.77539 0.153927ZM5.9248 0.153927L5.69011 0.560562L9.89128 2.98537L10.126 2.57873L10.3607 2.1721L6.1595 -0.252708L5.9248 0.153927ZM10.126 2.57873L9.89122 2.98533C10.101 3.10643 10.2307 3.33127 10.2307 3.57483H10.7002H11.1697C11.1697 2.99716 10.8622 2.46165 10.3607 2.17213L10.126 2.57873ZM10.7002 3.57483H10.2307V8.42541H10.7002H11.1697V3.57483H10.7002ZM10.7002 8.42541L10.2307 8.42523C10.2306 8.66838 10.1011 8.89274 9.89118 9.01395L10.126 9.42053L10.3608 9.82711C10.8617 9.53782 11.1695 9.00326 11.1697 8.42559L10.7002 8.42541ZM10.126 9.42053L9.89128 9.01389L5.69011 11.4387L5.9248 11.8453L6.1595 12.252L10.3607 9.82716L10.126 9.42053ZM5.9248 11.8453L5.69009 11.4387C5.47972 11.5601 5.22041 11.5601 5.01014 11.4387L4.77539 11.8453L4.54064 12.2519C5.0415 12.5411 5.65872 12.541 6.15952 12.252L5.9248 11.8453ZM4.77539 11.8453L5.01013 11.4387L0.809935 9.01392L0.575195 9.42053L0.340455 9.82714L4.54065 12.2519L4.77539 11.8453ZM0.575195 9.42053L0.809948 9.01392C0.599404 8.89237 0.469597 8.66769 0.469506 8.42523L0 8.42541L-0.469506 8.42559C-0.469288 9.00403 -0.159967 9.53822 0.340442 9.82713L0.575195 9.42053ZM0 8.42541H0.469506V3.57483H0H-0.469506V8.42541H0ZM0 3.57483H0.469506C0.469506 3.33203 0.599543 3.10681 0.809948 2.98534L0.575195 2.57873L0.340442 2.17213C-0.160357 2.46126 -0.469506 2.99639 -0.469506 3.57483H0ZM0.575195 2.57873L0.809935 2.98534L5.01013 0.560539L4.77539 0.153927L4.54065 -0.252685L0.340455 2.17212L0.575195 2.57873ZM5.41699 2.69592V2.22641C4.91119 2.22641 4.52561 2.64417 4.52561 3.11779H4.99512H5.46462C5.46462 3.13564 5.4577 3.14619 5.4527 3.15131C5.44629 3.15785 5.43317 3.16543 5.41699 3.16543V2.69592ZM4.99512 3.11779H4.52561V5.85705H4.99512H5.46462V3.11779H4.99512ZM4.99512 5.85705L4.52561 5.85619C4.52577 5.77129 4.56412 5.70561 4.60511 5.66655C4.64325 5.63019 4.70352 5.59751 4.78418 5.59751V6.06701V6.53652C5.12773 6.53652 5.4639 6.25541 5.46462 5.85791L4.99512 5.85705ZM4.78418 6.06701L4.78482 5.59751C4.92549 5.5977 5.0435 5.71595 5.04372 5.8563L4.57422 5.85705L4.10471 5.8578C4.10532 6.23464 4.40637 6.53601 4.78354 6.53652L4.78418 6.06701ZM4.57422 5.85705H5.04372V3.53869H4.57422H4.10471V5.85705H4.57422ZM4.57422 3.53869L5.04372 3.53846C5.04349 3.05436 4.63428 2.64829 4.15234 2.64829V3.11779V3.5873C4.13896 3.5873 4.12924 3.58432 4.12387 3.58196C4.11886 3.57976 4.1166 3.57772 4.11567 3.5768C4.11474 3.57587 4.1126 3.57352 4.11028 3.56826C4.10779 3.56264 4.10472 3.55261 4.10471 3.53892L4.57422 3.53869ZM4.15234 3.11779L4.15233 2.64829C3.64782 2.64831 3.26118 3.06388 3.26096 3.53848L3.73047 3.53869L4.19997 3.53891C4.19997 3.55689 4.19293 3.56783 4.18762 3.57323C4.18097 3.58001 4.16793 3.5873 4.15236 3.5873L4.15234 3.11779ZM3.73047 3.53869H3.26096V7.22619H3.73047H4.19997V3.53869H3.73047ZM3.73047 7.22619L4.06246 6.8942L3.27242 6.10416L2.94043 6.43615L2.60844 6.76814L3.39848 7.55818L3.73047 7.22619ZM2.94043 6.43615L3.27229 6.10403C3.08253 5.91442 2.83326 5.80857 2.57248 5.80844L2.57227 6.27795L2.57205 6.74746C2.57452 6.74746 2.5782 6.74789 2.58339 6.75008C2.58851 6.75225 2.59742 6.75713 2.60857 6.76828L2.94043 6.43615ZM2.57227 6.27795V5.80844C1.99496 5.80844 1.57542 6.28481 1.57542 6.80529H2.04492H2.51443C2.51443 6.79383 2.51966 6.7776 2.53266 6.76414C2.54343 6.753 2.55552 6.74746 2.57227 6.74746V6.27795ZM2.04492 6.80529L1.57542 6.80554C1.57554 7.0417 1.64434 7.30502 1.85844 7.51912L2.19043 7.18713L2.52242 6.85514C2.52045 6.85317 2.5201 6.85244 2.52036 6.85285C2.52059 6.85322 2.52036 6.853 2.51978 6.8514C2.51857 6.84804 2.51444 6.83451 2.51443 6.80505L2.04492 6.80529ZM2.19043 7.18713L1.85844 7.51912L3.34672 9.0074L3.67871 8.67541L4.0107 8.34342L2.52242 6.85514L2.19043 7.18713ZM3.67871 8.67541L3.3468 9.00748C3.93824 9.59863 4.71708 9.90846 5.54778 9.90859L5.54785 9.43908L5.54793 8.96958C4.95712 8.96948 4.41973 8.75225 4.01062 8.34334L3.67871 8.67541ZM5.54785 9.43908V9.90859H6.04883V9.43908V8.96958H5.54785V9.43908ZM6.04883 9.43908L6.04884 9.90859C7.58402 9.90854 8.83572 8.67209 8.83572 7.12072H8.36621H7.89671C7.89671 8.1505 7.06841 8.96954 6.04881 8.96958L6.04883 9.43908ZM8.36621 7.12072H8.83572V4.38147H8.36621H7.89671V7.12072H8.36621ZM8.36621 4.38147L8.83572 4.38115C8.8354 3.89847 8.42847 3.49129 7.94553 3.49106L7.94531 3.96057L7.94509 4.43007C7.91812 4.43006 7.90763 4.41917 7.9076 4.41914C7.90757 4.41911 7.89672 4.40868 7.89671 4.38178L8.36621 4.38147ZM7.94531 3.96057V3.49106C7.44072 3.49106 7.05422 3.90674 7.05393 4.38118L7.52344 4.38147L7.99294 4.38176C7.99293 4.39972 7.98591 4.41061 7.98063 4.416C7.97399 4.42276 7.96093 4.43007 7.94531 4.43007V3.96057ZM7.52344 4.38147H7.05393V5.85705H7.52344H7.99294V4.38147H7.52344ZM7.52344 5.85705L7.05393 5.85619C7.05409 5.77217 7.09183 5.70665 7.13295 5.66725C7.17127 5.63053 7.23168 5.59772 7.31225 5.59751L7.31348 6.06701L7.3147 6.53652C7.65889 6.53562 7.99222 6.25354 7.99294 5.85791L7.52344 5.85705ZM7.31348 6.06701V5.59751C7.45229 5.59751 7.57182 5.71385 7.57204 5.8563L7.10254 5.85705L6.63303 5.8578C6.63364 6.23695 6.93786 6.53652 7.31348 6.53652V6.06701ZM7.10254 5.85705H7.57204V3.53869H7.10254H6.63303V5.85705H7.10254ZM7.10254 3.53869L7.57204 3.53846C7.57181 3.05436 7.1626 2.64829 6.68066 2.64829V3.11779V3.5873C6.66728 3.5873 6.65756 3.58432 6.65219 3.58196C6.64718 3.57976 6.64492 3.57772 6.64399 3.5768C6.64306 3.57587 6.64092 3.57352 6.6386 3.56826C6.63611 3.56264 6.63304 3.55261 6.63303 3.53892L7.10254 3.53869ZM6.68066 3.11779L6.68043 2.64829C6.17499 2.64854 5.79048 3.06515 5.79026 3.53848L6.25977 3.53869L6.72927 3.53891C6.72926 3.55628 6.7225 3.56714 6.71696 3.57279C6.71003 3.57988 6.69661 3.58729 6.6809 3.5873L6.68066 3.11779ZM6.25977 3.53869H5.79026V5.85705H6.25977H6.72927V3.53869H6.25977ZM6.25977 5.85705L5.79026 5.85619C5.79042 5.76935 5.83049 5.70048 5.87537 5.65954C5.91839 5.6203 5.97441 5.59751 6.03516 5.59751V6.06701V6.53652C6.37187 6.53652 6.72851 6.27409 6.72927 5.85791L6.25977 5.85705ZM6.03516 6.06701L6.03625 5.59751C6.20752 5.59791 6.3072 5.73403 6.3074 5.8563L5.83789 5.85705L5.36839 5.8578C5.36896 6.21645 5.65265 6.53563 6.03406 6.53652L6.03516 6.06701ZM5.83789 5.85705H6.3074V3.11779H5.83789H5.36838V5.85705H5.83789ZM5.83789 3.11779H6.3074C6.3074 2.6357 5.90108 2.22689 5.41745 2.22641L5.41699 2.69592L5.41653 3.16543C5.40285 3.16541 5.39287 3.16234 5.38731 3.15988C5.38211 3.15758 5.37979 3.15547 5.37889 3.15456C5.37799 3.15366 5.37596 3.15142 5.37375 3.14639C5.37138 3.14101 5.36838 3.13125 5.36838 3.11779H5.83789Z" fill="black" fill-opacity="0.2" mask="url(#path-1-inside-1_616_75754)"/>
<path fill-rule="evenodd" clip-rule="evenodd" d="M4.77539 0.153927L5.01013 0.560539L5.01014 0.560531L4.77539 0.153927ZM5.9248 0.153927L6.1595 -0.252708L6.15948 -0.252721L5.9248 0.153927ZM10.126 2.57873L10.3607 2.17213L10.3607 2.1721L10.126 2.57873ZM10.7002 8.42541L11.1697 8.42559V8.42541H10.7002ZM10.126 9.42053L10.3607 9.82716L10.3608 9.82711L10.126 9.42053ZM5.9248 11.8453L5.69011 11.4387L5.69009 11.4387L5.9248 11.8453ZM4.77539 11.8453L5.01014 11.4387L5.01013 11.4387L4.77539 11.8453ZM0.575195 9.42053L0.340442 9.82713L0.340455 9.82714L0.575195 9.42053ZM0 8.42541H-0.469506L-0.469506 8.42559L0 8.42541ZM0.575195 2.57873L0.340455 2.17212L0.340442 2.17213L0.575195 2.57873ZM5.41699 2.69592L5.41745 2.22641H5.41699V2.69592ZM4.99512 5.85705L5.46462 5.85791V5.85705H4.99512ZM4.78418 6.06701L4.78354 6.53652H4.78418V6.06701ZM4.57422 5.85705H4.10471L4.10471 5.8578L4.57422 5.85705ZM4.57422 3.53869H5.04372V3.53846L4.57422 3.53869ZM4.15234 3.11779V2.64829H4.15233L4.15234 3.11779ZM3.73047 3.53869L3.26096 3.53848V3.53869H3.73047ZM3.73047 7.22619L3.39848 7.55818L4.19997 8.35968V7.22619H3.73047ZM2.94043 6.43615L3.27242 6.10416L3.27229 6.10403L2.94043 6.43615ZM2.57227 6.27795L2.57248 5.80844H2.57227V6.27795ZM2.04492 6.80529H1.57542L1.57542 6.80554L2.04492 6.80529ZM2.19043 7.18713L1.85844 7.51912V7.51912L2.19043 7.18713ZM3.67871 8.67541L3.34672 9.0074L3.3468 9.00748L3.67871 8.67541ZM5.54785 9.43908L5.54778 9.90859H5.54785V9.43908ZM6.04883 9.43908V9.90859H6.04884L6.04883 9.43908ZM8.36621 4.38147H8.83572V4.38115L8.36621 4.38147ZM7.94531 3.96057L7.94553 3.49106H7.94531V3.96057ZM7.52344 4.38147L7.05393 4.38118V4.38147H7.52344ZM7.52344 5.85705L7.99294 5.85791V5.85705H7.52344ZM7.31348 6.06701V6.53652L7.3147 6.53652L7.31348 6.06701ZM7.10254 5.85705H6.63303L6.63303 5.8578L7.10254 5.85705ZM7.10254 3.53869H7.57204V3.53846L7.10254 3.53869ZM6.68066 3.11779V2.64829L6.68043 2.64829L6.68066 3.11779ZM6.25977 3.53869L5.79026 3.53848V3.53869H6.25977ZM6.25977 5.85705L6.72927 5.85791V5.85705H6.25977ZM6.03516 6.06701L6.03406 6.53652H6.03516V6.06701ZM5.83789 5.85705H5.36838L5.36839 5.8578L5.83789 5.85705ZM4.77539 0.153927L5.01014 0.560531C5.22036 0.439163 5.47973 0.439151 5.69013 0.560575L5.9248 0.153927L6.15948 -0.252721C5.65874 -0.541698 5.0415 -0.541852 4.54064 -0.252677L4.77539 0.153927ZM5.9248 0.153927L5.69011 0.560562L9.89128 2.98537L10.126 2.57873L10.3607 2.1721L6.1595 -0.252708L5.9248 0.153927ZM10.126 2.57873L9.89122 2.98533C10.101 3.10643 10.2307 3.33127 10.2307 3.57483H10.7002H11.1697C11.1697 2.99716 10.8622 2.46165 10.3607 2.17213L10.126 2.57873ZM10.7002 3.57483H10.2307V8.42541H10.7002H11.1697V3.57483H10.7002ZM10.7002 8.42541L10.2307 8.42523C10.2306 8.66838 10.1011 8.89274 9.89118 9.01395L10.126 9.42053L10.3608 9.82711C10.8617 9.53782 11.1695 9.00326 11.1697 8.42559L10.7002 8.42541ZM10.126 9.42053L9.89128 9.01389L5.69011 11.4387L5.9248 11.8453L6.1595 12.252L10.3607 9.82716L10.126 9.42053ZM5.9248 11.8453L5.69009 11.4387C5.47972 11.5601 5.22041 11.5601 5.01014 11.4387L4.77539 11.8453L4.54064 12.2519C5.0415 12.5411 5.65872 12.541 6.15952 12.252L5.9248 11.8453ZM4.77539 11.8453L5.01013 11.4387L0.809935 9.01392L0.575195 9.42053L0.340455 9.82714L4.54065 12.2519L4.77539 11.8453ZM0.575195 9.42053L0.809948 9.01392C0.599404 8.89237 0.469597 8.66769 0.469506 8.42523L0 8.42541L-0.469506 8.42559C-0.469288 9.00403 -0.159967 9.53822 0.340442 9.82713L0.575195 9.42053ZM0 8.42541H0.469506V3.57483H0H-0.469506V8.42541H0ZM0 3.57483H0.469506C0.469506 3.33203 0.599543 3.10681 0.809948 2.98534L0.575195 2.57873L0.340442 2.17213C-0.160357 2.46126 -0.469506 2.99639 -0.469506 3.57483H0ZM0.575195 2.57873L0.809935 2.98534L5.01013 0.560539L4.77539 0.153927L4.54065 -0.252685L0.340455 2.17212L0.575195 2.57873ZM5.41699 2.69592V2.22641C4.91119 2.22641 4.52561 2.64417 4.52561 3.11779H4.99512H5.46462C5.46462 3.13564 5.4577 3.14619 5.4527 3.15131C5.44629 3.15785 5.43317 3.16543 5.41699 3.16543V2.69592ZM4.99512 3.11779H4.52561V5.85705H4.99512H5.46462V3.11779H4.99512ZM4.99512 5.85705L4.52561 5.85619C4.52577 5.77129 4.56412 5.70561 4.60511 5.66655C4.64325 5.63019 4.70352 5.59751 4.78418 5.59751V6.06701V6.53652C5.12773 6.53652 5.4639 6.25541 5.46462 5.85791L4.99512 5.85705ZM4.78418 6.06701L4.78482 5.59751C4.92549 5.5977 5.0435 5.71595 5.04372 5.8563L4.57422 5.85705L4.10471 5.8578C4.10532 6.23464 4.40637 6.53601 4.78354 6.53652L4.78418 6.06701ZM4.57422 5.85705H5.04372V3.53869H4.57422H4.10471V5.85705H4.57422ZM4.57422 3.53869L5.04372 3.53846C5.04349 3.05436 4.63428 2.64829 4.15234 2.64829V3.11779V3.5873C4.13896 3.5873 4.12924 3.58432 4.12387 3.58196C4.11886 3.57976 4.1166 3.57772 4.11567 3.5768C4.11474 3.57587 4.1126 3.57352 4.11028 3.56826C4.10779 3.56264 4.10472 3.55261 4.10471 3.53892L4.57422 3.53869ZM4.15234 3.11779L4.15233 2.64829C3.64782 2.64831 3.26118 3.06388 3.26096 3.53848L3.73047 3.53869L4.19997 3.53891C4.19997 3.55689 4.19293 3.56783 4.18762 3.57323C4.18097 3.58001 4.16793 3.5873 4.15236 3.5873L4.15234 3.11779ZM3.73047 3.53869H3.26096V7.22619H3.73047H4.19997V3.53869H3.73047ZM3.73047 7.22619L4.06246 6.8942L3.27242 6.10416L2.94043 6.43615L2.60844 6.76814L3.39848 7.55818L3.73047 7.22619ZM2.94043 6.43615L3.27229 6.10403C3.08253 5.91442 2.83326 5.80857 2.57248 5.80844L2.57227 6.27795L2.57205 6.74746C2.57452 6.74746 2.5782 6.74789 2.58339 6.75008C2.58851 6.75225 2.59742 6.75713 2.60857 6.76828L2.94043 6.43615ZM2.57227 6.27795V5.80844C1.99496 5.80844 1.57542 6.28481 1.57542 6.80529H2.04492H2.51443C2.51443 6.79383 2.51966 6.7776 2.53266 6.76414C2.54343 6.753 2.55552 6.74746 2.57227 6.74746V6.27795ZM2.04492 6.80529L1.57542 6.80554C1.57554 7.0417 1.64434 7.30502 1.85844 7.51912L2.19043 7.18713L2.52242 6.85514C2.52045 6.85317 2.5201 6.85244 2.52036 6.85285C2.52059 6.85322 2.52036 6.853 2.51978 6.8514C2.51857 6.84804 2.51444 6.83451 2.51443 6.80505L2.04492 6.80529ZM2.19043 7.18713L1.85844 7.51912L3.34672 9.0074L3.67871 8.67541L4.0107 8.34342L2.52242 6.85514L2.19043 7.18713ZM3.67871 8.67541L3.3468 9.00748C3.93824 9.59863 4.71708 9.90846 5.54778 9.90859L5.54785 9.43908L5.54793 8.96958C4.95712 8.96948 4.41973 8.75225 4.01062 8.34334L3.67871 8.67541ZM5.54785 9.43908V9.90859H6.04883V9.43908V8.96958H5.54785V9.43908ZM6.04883 9.43908L6.04884 9.90859C7.58402 9.90854 8.83572 8.67209 8.83572 7.12072H8.36621H7.89671C7.89671 8.1505 7.06841 8.96954 6.04881 8.96958L6.04883 9.43908ZM8.36621 7.12072H8.83572V4.38147H8.36621H7.89671V7.12072H8.36621ZM8.36621 4.38147L8.83572 4.38115C8.8354 3.89847 8.42847 3.49129 7.94553 3.49106L7.94531 3.96057L7.94509 4.43007C7.91812 4.43006 7.90763 4.41917 7.9076 4.41914C7.90757 4.41911 7.89672 4.40868 7.89671 4.38178L8.36621 4.38147ZM7.94531 3.96057V3.49106C7.44072 3.49106 7.05422 3.90674 7.05393 4.38118L7.52344 4.38147L7.99294 4.38176C7.99293 4.39972 7.98591 4.41061 7.98063 4.416C7.97399 4.42276 7.96093 4.43007 7.94531 4.43007V3.96057ZM7.52344 4.38147H7.05393V5.85705H7.52344H7.99294V4.38147H7.52344ZM7.52344 5.85705L7.05393 5.85619C7.05409 5.77217 7.09183 5.70665 7.13295 5.66725C7.17127 5.63053 7.23168 5.59772 7.31225 5.59751L7.31348 6.06701L7.3147 6.53652C7.65889 6.53562 7.99222 6.25354 7.99294 5.85791L7.52344 5.85705ZM7.31348 6.06701V5.59751C7.45229 5.59751 7.57182 5.71385 7.57204 5.8563L7.10254 5.85705L6.63303 5.8578C6.63364 6.23695 6.93786 6.53652 7.31348 6.53652V6.06701ZM7.10254 5.85705H7.57204V3.53869H7.10254H6.63303V5.85705H7.10254ZM7.10254 3.53869L7.57204 3.53846C7.57181 3.05436 7.1626 2.64829 6.68066 2.64829V3.11779V3.5873C6.66728 3.5873 6.65756 3.58432 6.65219 3.58196C6.64718 3.57976 6.64492 3.57772 6.64399 3.5768C6.64306 3.57587 6.64092 3.57352 6.6386 3.56826C6.63611 3.56264 6.63304 3.55261 6.63303 3.53892L7.10254 3.53869ZM6.68066 3.11779L6.68043 2.64829C6.17499 2.64854 5.79048 3.06515 5.79026 3.53848L6.25977 3.53869L6.72927 3.53891C6.72926 3.55628 6.7225 3.56714 6.71696 3.57279C6.71003 3.57988 6.69661 3.58729 6.6809 3.5873L6.68066 3.11779ZM6.25977 3.53869H5.79026V5.85705H6.25977H6.72927V3.53869H6.25977ZM6.25977 5.85705L5.79026 5.85619C5.79042 5.76935 5.83049 5.70048 5.87537 5.65954C5.91839 5.6203 5.97441 5.59751 6.03516 5.59751V6.06701V6.53652C6.37187 6.53652 6.72851 6.27409 6.72927 5.85791L6.25977 5.85705ZM6.03516 6.06701L6.03625 5.59751C6.20752 5.59791 6.3072 5.73403 6.3074 5.8563L5.83789 5.85705L5.36839 5.8578C5.36896 6.21645 5.65265 6.53563 6.03406 6.53652L6.03516 6.06701ZM5.83789 5.85705H6.3074V3.11779H5.83789H5.36838V5.85705H5.83789ZM5.83789 3.11779H6.3074C6.3074 2.6357 5.90108 2.22689 5.41745 2.22641L5.41699 2.69592L5.41653 3.16543C5.40285 3.16541 5.39287 3.16234 5.38731 3.15988C5.38211 3.15758 5.37979 3.15547 5.37889 3.15456C5.37799 3.15366 5.37596 3.15142 5.37375 3.14639C5.37138 3.14101 5.36838 3.13125 5.36838 3.11779H5.83789Z" fill="black" fill-opacity="0.2" mask="url(#path-1-inside-1_616_75754)"/>
</svg>
