<svg width="12" height="12" viewBox="0 0 12 12" fill="none" xmlns="http://www.w3.org/2000/svg">
<path d="M2.51415 5.67096C2.50213 5.176 2.0733 4.78335 1.55498 4.78335H0.965053C0.446727 4.78335 0.0176441 5.176 0.00588144 5.67096C8.56843e-08 5.68244 0 5.69367 0 5.70515V6.33099H0.00588144C0.0178999 6.82034 0.446727 7.2186 0.965053 7.2186H1.55498C2.0733 7.2186 2.50239 6.82034 2.51415 6.33099H2.52003V5.70515C2.52029 5.69391 2.52029 5.68244 2.51415 5.67096ZM1.55498 6.68384H0.965053C0.756649 6.68384 0.577907 6.52463 0.560007 6.33099V5.67096C0.577907 5.47757 0.756649 5.31811 0.965053 5.31811H1.55498C1.76364 5.31811 1.94238 5.47732 1.96028 5.67096V6.33099C1.94238 6.52439 1.76364 6.68384 1.55498 6.68384Z" fill="#FF5C00"/>
<path d="M2.52101 0.921797V1.54764H2.51513C2.50311 2.03699 2.07428 2.43525 1.55596 2.43525H0.96603C0.447704 2.43525 0.0186207 2.03699 0.00685803 1.54764H0.000976592V0.921797C0.000976592 0.910321 0.000976678 0.899088 0.00685803 0.887612C0.0188764 0.392649 0.447704 0 0.96603 0H1.55596C2.07428 0 2.50336 0.392649 2.51513 0.887612C2.52101 0.899088 2.52101 0.910565 2.52101 0.921797Z" fill="#FF5C00"/>
<path d="M2.52101 10.4865V11.1124H2.51513C2.50311 11.6017 2.07428 12 1.55596 12H0.96603C0.447704 12 0.0186207 11.6017 0.00685803 11.1124H0.000976592V10.4865C0.000976592 10.4751 0.000976678 10.4638 0.00685803 10.4524C0.0188764 9.95739 0.447704 9.56475 0.96603 9.56475H1.55596C2.07428 9.56475 2.50336 9.95739 2.51513 10.4524C2.52101 10.4638 2.52101 10.4753 2.52101 10.4865Z" fill="#FF5C00"/>
<path d="M9.2314 5.1844L10.0622 4.13978H11.4622L10.0415 5.97775L11.5006 7.85578H10.0868L9.2314 6.78112L8.37605 7.85578H6.96555L8.42131 5.97775L7.0039 4.13978H8.40034L9.2314 5.1844Z" fill="#FF5C00"/>
<path fill-rule="evenodd" clip-rule="evenodd" d="M9.0176 11.3049H3.48555C3.21143 11.3049 3.00302 11.0888 3.00302 10.8442V10.7189C3.00302 10.4571 3.22933 10.2581 3.48555 10.2581H9.0176C9.29172 10.2581 9.50013 10.4686 9.50013 10.7189V10.8442C9.50013 11.1057 9.27382 11.3049 9.0176 11.3049Z" fill="#FF5C00"/>
<path fill-rule="evenodd" clip-rule="evenodd" d="M9.0176 1.73825H3.48555C3.21143 1.73825 3.00302 1.52214 3.00302 1.27747V1.1522C3.00302 0.890438 3.22933 0.691427 3.48555 0.691427H9.0176C9.29172 0.691427 9.50013 0.901915 9.50013 1.1522V1.27747C9.50013 1.53924 9.27382 1.73825 9.0176 1.73825Z" fill="#FF5C00"/>
<path fill-rule="evenodd" clip-rule="evenodd" d="M6.87986 6.50988H3.48555C3.21143 6.50988 3.00302 6.29377 3.00302 6.0491V5.92383C3.00302 5.66207 3.22933 5.46306 3.48555 5.46306H6.87986C7.15398 5.46306 7.36238 5.67355 7.36238 5.92383V6.0491C7.36264 6.31087 7.13608 6.50988 6.87986 6.50988Z" fill="#FF5C00"/>
</svg>
